<svg xmlns="http://www.w3.org/2000/svg" viewBox="0 0 348.71 95.6"><defs><style>.cls-1{fill:#121727;}.cls-2{fill:#bd272d;}.cls-3{fill:none;}.cls-4{fill:#fff;}</style></defs><title>Asset 1</title><g id="Layer_2" data-name="Layer 2"><g id="Layer_1-2" data-name="Layer 1"><path class="cls-1" d="M20.89,21.22,9.79,37.35a.1.1,0,0,1-.19-.06v-16a.1.1,0,0,0-.1-.1H.1a.1.1,0,0,0-.1.1V65.19a.1.1,0,0,0,.1.1H9.49a.1.1,0,0,0,.1-.1V49.53a.1.1,0,0,1,.19-.06L20.42,65.25a.1.1,0,0,0,.09,0H31.94a.1.1,0,0,0,.09-.16L17,42.93a.1.1,0,0,1,0-.12L32,21.34a.1.1,0,0,0-.08-.16H21A.1.1,0,0,0,20.89,21.22Z"/><path class="cls-1" d="M46.7,35a17,17,0,0,0-3.39.39.1.1,0,0,1-.12-.1v-14a.1.1,0,0,0-.1-.1H33.57a.1.1,0,0,0-.1.1V65.19a.1.1,0,0,0,.1.1h9.51a.1.1,0,0,0,.1-.1V48.24A3.54,3.54,0,0,1,48,44.91a3.71,3.71,0,0,1,2.31,3.5V65.19a.1.1,0,0,0,.1.1h9.45a.1.1,0,0,0,.1-.1V48.24A13.2,13.2,0,0,0,46.7,35Z"/><path class="cls-1" d="M84,65.72A12.06,12.06,0,0,0,96.1,77.77c.33,0,.65,0,1,0v0l.24,0h0a18.42,18.42,0,0,0,3.18-.78,17.54,17.54,0,0,0,2.67-1.15c.36-.19.71-.39,1-.6a22.25,22.25,0,0,0,8.64-10.79l11.86-28.77a.1.1,0,0,0-.1-.14H114.25a.1.1,0,0,0-.1.06l-5,12.28a.1.1,0,0,1-.19,0l-5-12.28a.1.1,0,0,0-.1-.06H93.59a.1.1,0,0,0-.1.14l6.17,15,.08.18,1.66,4,2.53,6.17h0a11.56,11.56,0,0,1-6.06,7.11c-.23.12-.46.22-.7.31l-.14.05-.37.14h0A3.52,3.52,0,0,1,92.16,66a2,2,0,0,1-.07-.51s0-.08,0-.12,0,0,0-.06V35.59a.1.1,0,0,0-.1-.1h-7.9a.1.1,0,0,0-.1.1v1.1a.1.1,0,0,1-.15.09,15.44,15.44,0,0,0-10.31-1.46A14.68,14.68,0,0,0,62.3,44.94,15.49,15.49,0,0,0,76.72,65.77,16.09,16.09,0,0,0,84,63.94l.15-.07h0M77,56.11a5.67,5.67,0,0,1-5.65-5.52A5.69,5.69,0,1,1,77,56.11Z"/><path class="cls-1" d="M151.41,35.49h-6.85a.1.1,0,0,0-.1.1v1.27A15.45,15.45,0,0,0,134,35.31a14.68,14.68,0,0,0-11.26,9.59,15.49,15.49,0,0,0,14.4,20.88,16.09,16.09,0,0,0,7.24-1.83.1.1,0,0,1,.15.09v1.16a.1.1,0,0,0,.1.1h7.78a.1.1,0,0,0,.1-.1v-.87a.18.18,0,0,0,0,0,48.91,48.91,0,0,1-1-28.68A.1.1,0,0,0,151.41,35.49Zm-14,20.63a5.68,5.68,0,0,1-5.66-5.53,5.69,5.69,0,1,1,5.66,5.53Z"/><path class="cls-2" d="M204.1,0a48,48,0,0,0-6.28.41,47.41,47.41,0,0,0-8.75,2,47.8,47.8,0,0,0,15,93.18q1.24,0,2.47-.06A47.8,47.8,0,0,0,204.1,0Z"/><path class="cls-3" d="M204.1,2.92a45.06,45.06,0,0,0-6.28.44V67.9h-8.75V53.23L179.19,67.9H168.54l13.8-20.44L168.54,27.7h10.21l10.32,15V5.51a44.88,44.88,0,0,0,15,87.16q1.24,0,2.47-.07V27.7h8.75v15l10.32-15h10.21l-13.8,19.77,13.8,20.44H225.21l-9.89-14.67v38A44.88,44.88,0,0,0,204.1,2.92Z"/><path class="cls-4" d="M225.78,67.9h10.4a.1.1,0,0,0,.09-.16L222.61,47.52a.1.1,0,0,1,0-.12l13.65-19.55a.1.1,0,0,0-.08-.16h-10a.1.1,0,0,0-.08,0L216,42.41a.1.1,0,0,1-.19-.06V27.8a.1.1,0,0,0-.1-.1h-8.54a.1.1,0,0,0-.1.1V92.5a.11.11,0,0,0,.11.1,44.68,44.68,0,0,0,8.56-1.32.1.1,0,0,0,.08-.1V53.57a.1.1,0,0,1,.19-.06l9.67,14.34A.1.1,0,0,0,225.78,67.9Z"/><path class="cls-4" d="M178.9,27.7h-10a.1.1,0,0,0-.08.16l13.65,19.55a.1.1,0,0,1,0,.12L168.84,67.74a.1.1,0,0,0,.09.16h10.4a.1.1,0,0,0,.09,0l9.67-14.34a.1.1,0,0,1,.19.06V67.8a.1.1,0,0,0,.1.1h8.54a.1.1,0,0,0,.1-.1V3.49a.11.11,0,0,0-.12-.1,44.49,44.49,0,0,0-8.56,2.11.1.1,0,0,0-.07.1V42.35a.1.1,0,0,1-.19.06L179,27.74A.1.1,0,0,0,178.9,27.7Z"/><path class="cls-1" d="M261.69,13.81c.3,0,.67.54.67.66C262,20.62,260.91,32,258.92,53l1.26-.72c3.13-1.81,7.29-4.28,11.44-7.23,3.61-5.78,7.59-10.78,13.91-14.46a.51.51,0,0,1,.36-.12.71.71,0,0,1,.67.66.24.24,0,0,1-.12.24c-3.25,5.9-8.56,10.66-13.92,14.58-3.31,5.54-6.38,11.2-9.64,17.59L265.25,67c6.93,10.18,16.5,24.15,23.91,26.08.3.06.48.36.48.78a.79.79,0,0,1-.84.48c-3.49-.9-7.59-4.28-12.53-10.24-4.28-5.06-8.43-11-12-16.32l-2-3a97.24,97.24,0,0,0-4.16,9.7c-.18.42-.48,1.15-1.26,1.15-.54-.06-.66-.9-.66-1.33V72.18c0-1.69.24-4,.48-7.29l.54-7a10.92,10.92,0,0,0-1.75-1.69,3.86,3.86,0,0,1-.24-.54.74.74,0,0,1,.24-.54l2.17-1.38c1.08-13,2.77-25.84,3.56-39.27A.62.62,0,0,1,261.69,13.81Zm-4.88,41.92.49.48c0-.3.06-.54.06-.84A3.05,3.05,0,0,0,256.81,55.73Zm1,8.43c-.36,4.34-.48,6.87-.48,8.37,1.08-2.89,2.47-5.84,4-8.92-1.08-1.62-2.17-3.07-3.07-4.28Zm.9-9.58-.3,3A52.38,52.38,0,0,1,262,62.42c2.53-5,5.12-10.06,8.13-14.82-3.43,2.29-6.62,4.15-9.33,5.72A17,17,0,0,0,258.74,54.59Zm15.9-11.86a46.21,46.21,0,0,0,9.21-9.58A32.42,32.42,0,0,0,276.63,40,28.83,28.83,0,0,0,274.64,42.72Z"/><path class="cls-1" d="M279.34,46.64a10.26,10.26,0,0,1,1.14,4.76,13.3,13.3,0,0,1-2.35,7.17v.6a33.54,33.54,0,0,0,.72,7.53c.9,3.61,2.17,4.94,2.17,4.94a.7.7,0,0,1,.18.48.48.48,0,0,1-.18.42c-.18.18-.24.3-.42.3s-.3-.12-.48-.3-3-3.07-3.25-12.17a19.43,19.43,0,0,1-2.17,2.41.45.45,0,0,1-.42.18.58.58,0,0,1-.66-.6,1.12,1.12,0,0,1,.18-.48,26.17,26.17,0,0,0,3.07-3.67,82.87,82.87,0,0,1,1.26-11.38c0-.3.3-.48.54-.54S279.22,46.34,279.34,46.64Zm-.48-15.12c.72,0,3.07,2,3.07,3.74,0,.54-.36,1.44-1.08,1.44a.66.66,0,0,1-.54-.66c0-.36.36-.6.36-1.08a5.07,5.07,0,0,0-2.23-2.23.72.72,0,0,1-.3-.54A.78.78,0,0,1,278.86,31.52Zm-.54,24.15a11.78,11.78,0,0,0,.9-4.28,8,8,0,0,0-.24-2C278.61,51.7,278.43,53.75,278.31,55.67Z"/><path class="cls-1" d="M306.86,38.33c-2.59.18-9.21,1.69-15.42,3.25a56.35,56.35,0,0,1-4.82,15.18c0,6.75.72,8.13,1.44,8.49a1.47,1.47,0,0,0,.54.06c.85,0,2.35-.72,5.06-3.43a1.15,1.15,0,0,1,.48-.18.71.71,0,0,1,.6.66.47.47,0,0,1-.18.42c-2.59,2.65-4.58,3.91-6,3.91a2.42,2.42,0,0,1-1.08-.3c-1.44-.78-2.11-3-2.11-7.11a16.38,16.38,0,0,1-2.53,3.49c-.18.18-.24.3-.42.3a.77.77,0,0,1-.66-.72,1.12,1.12,0,0,1,.18-.48,23.26,23.26,0,0,0,3.55-5.42A138.57,138.57,0,0,1,287,42.66l-6.57,1.51c-.36,0-.54-.54-.54-.72a.64.64,0,0,1,.42-.54c2-.42,4.34-1.08,6.87-1.63.66-4.21,1.57-9.21,2.65-14.82a.58.58,0,0,1,.54-.54.63.63,0,0,1,.6.48A24,24,0,0,1,292,34.23a47.52,47.52,0,0,1-.42,6c6.69-1.51,13.07-3.13,15.36-3.13.24,0,.42.24.54.54S307.22,38.21,306.86,38.33Zm-16.8,3.49-1.68.48c-.67,4.16-1.08,7.65-1.39,10.54A55.55,55.55,0,0,0,290.05,41.82Zm-1.5-.9,1.8-.42a51.67,51.67,0,0,0,.42-6.26,23.45,23.45,0,0,0-.36-4.58C289.69,33,289.09,38,288.55,40.92Z"/><path class="cls-1" d="M301.38,52.12a2.51,2.51,0,0,1,2.53,2.53,3.92,3.92,0,0,1-1.21,2.89c-.18.12-.24.18-.42.18s-.72-.24-.72-.6a.62.62,0,0,1,.24-.48,2.93,2.93,0,0,0,.85-2,1.14,1.14,0,0,0-1.26-1.26A6.4,6.4,0,0,0,297,55.55a9.21,9.21,0,0,0-2.29,6.14c0,1.93.84,4.34,3.25,4.34,2,0,4.64-1.51,7.23-4.16a1.15,1.15,0,0,1,.48-.18.71.71,0,0,1,.6.66.47.47,0,0,1-.18.42c-2.89,2.89-5.78,4.52-8.13,4.52-3.07,0-4.51-2.71-4.51-5.6A10.41,10.41,0,0,1,296,54.77,7.88,7.88,0,0,1,301.38,52.12Z"/><path class="cls-1" d="M307.7,14.11c0-.3.36-.54.72-.54a.54.54,0,0,1,.6.6v2c0,3.07.12,7,.18,11.5.12,5.6.3,11.62.3,17.59,0,2,0,4.1-.12,6.08.84-1.2,1.81-3.25,3.56-3.25,1.26,0,1.32,1.81,1.32,5.6,0,2.17.18,4.58.36,6.56.12,1,.54,3.8,2.17,3.8q1.27,0,3.43-2.17a1.15,1.15,0,0,1,.48-.18.71.71,0,0,1,.6.66.47.47,0,0,1-.18.42c-1.69,1.75-3.07,2.53-4.22,2.53-2.35,0-3.37-2.59-3.56-4.76s-.36-4.64-.36-9.09a5.49,5.49,0,0,0-.24-2A11,11,0,0,0,309.87,53l-.54.9a87.8,87.8,0,0,1-1.63,16.44.71.71,0,0,1-.72.42c-.18,0-.36-.18-.54-.36a16.51,16.51,0,0,1-1.08-6,23.58,23.58,0,0,1,2.59-10.78c.12-2.77.18-5.66.18-8.55,0-6-.12-12-.24-17.35-.12-4.52-.18-8.31-.18-11.5Zm-.84,53.48a91.58,91.58,0,0,0,1-10.48,20.87,20.87,0,0,0-1.27,7.23A14.7,14.7,0,0,0,306.85,67.6Z"/><path class="cls-1" d="M326.13,49.35a2.75,2.75,0,0,1,2.77,2.89c0,2.41-2.89,5.6-7,9.76.3,1.62,1.2,4.21,3.25,4.21,1.26,0,3.43-.9,6.87-4.34a1.15,1.15,0,0,1,.48-.18.71.71,0,0,1,.6.66.48.48,0,0,1-.18.42c-3.13,3.19-5.66,4.7-7.77,4.7-2.71,0-3.61-2.23-4.33-4.52a.67.67,0,0,1-.54-.18.7.7,0,0,1-.18-.42,1.18,1.18,0,0,1,.18-.48l.3-.24c0-3.85.06-8.43,3.25-11.38A3.93,3.93,0,0,1,326.13,49.35Zm1.44,2.59c0-.72-.84-1.26-1.62-1.26a2.23,2.23,0,0,0-1.39.54c-1.69,1.44-2.89,5.18-2.89,9.21C323.41,58.56,327.57,54.65,327.57,51.94Z"/><path class="cls-1" d="M334.43,48c.24,0,.42.36.54.66a37.25,37.25,0,0,1,.24,4.7,24.1,24.1,0,0,1-.54,5.78v.54a27.08,27.08,0,0,1,.18,3.13l.18-.54c2-6.39,3.37-10.3,5.18-10.3,1.14,0,1.8,1.75,2.23,4.46.18,1.15,1.39,6.69,3.25,6.69a3.33,3.33,0,0,0,1.93-1.2.67.67,0,0,1,.42-.18.71.71,0,0,1,.67.66.68.68,0,0,1-.18.42,4.35,4.35,0,0,1-2.89,1.56c-2.89,0-3.92-5.06-4.33-7.59-.3-1.57-.85-3.55-1.08-3.55s-.85.66-1.75,2.89c-.78,1.93-1.51,4.34-2.23,6.5L335,66.51a.77.77,0,0,1-.72.36c-.3,0-.48-.3-.48-.66,0-1.62-.06-3-.18-4.34l-.72.9c-.18.18-.24.3-.42.3a.77.77,0,0,1-.66-.72,1.18,1.18,0,0,1,.18-.48A6.51,6.51,0,0,0,333.41,59a35.89,35.89,0,0,1-.18-4.4C333.23,53.75,333.23,48,334.43,48Z"/></g></g></svg>